<svg width="84" height="40" viewBox="0 0 84 40" fill="none" xmlns="http://www.w3.org/2000/svg">
<path d="M82.8876 0C78.2883 0 73.6889 0 69.0895 0C68.3536 0.172886 68.3536 0.691546 68.3536 1.26783C68.3536 13.7733 68.3536 26.2787 68.3536 38.7842C68.3536 39.7639 68.7216 39.9368 69.6415 39.9368C73.6889 39.8791 77.7364 39.8791 81.7838 39.9368C82.8876 39.9368 83.1329 39.6486 83.0716 38.6689C83.0103 26.2211 83.0716 13.7157 83.0716 1.26783C83.0716 0.864432 82.949 0.403402 82.8876 0Z" fill="#0054E6"/>
<path d="M0.223164 1.32546C0.223164 0.518659 0.468464 0.230515 1.38834 0.230515C15.2478 0.230515 29.1072 0.230515 42.9053 0.230515C43.2732 0.230515 43.7025 0.115258 43.9478 0.461031C44.1931 0.403402 44.1931 0.172886 44.1931 0C29.5364 0 14.7572 0 0.0391898 0C0.0391898 3.11196 0.0391898 6.22391 0.0391898 9.27824C0.0391898 9.68164 -0.144785 10.1427 0.284489 10.4884C0.284489 7.43412 0.284489 4.37979 0.223164 1.32546Z" fill="#0054E6"/>
<path d="M47.5645 0C47.5645 0.0576288 47.5645 0.172886 47.5645 0.230515C53.2064 0.230515 58.787 0.230515 64.4289 0.230515C64.5515 0.172886 64.6128 0.0576288 64.7355 0C59.0323 0 53.3291 0 47.5645 0Z" fill="#0054E6"/>
<path d="M33.9505 10.3158C34.5637 10.3158 34.993 10.1429 35.361 9.73948C38.2432 6.62753 41.1255 3.5732 44.0078 0.461243C43.1492 0.634129 42.2907 0.634129 41.4934 0.634129C28.6766 0.634129 15.8597 0.634129 2.98145 0.634129C0.712431 0.634129 0.712431 0.634129 0.712431 2.70877C0.712431 4.7834 0.712431 6.85804 0.712431 8.93268C0.712431 9.50897 0.773756 10.0853 0.344482 10.5463C3.41072 10.5463 6.47697 10.6039 9.54321 10.6039C11.5669 10.6039 11.5669 10.6039 11.5669 12.448C11.5669 21.15 11.5669 29.9096 11.5669 38.6115C11.5669 39.6488 11.7509 40.0522 12.9774 39.9946C17.0862 39.937 21.1336 39.937 25.2424 39.9946C26.5302 39.9946 26.8981 39.7641 26.8368 38.4963C26.7755 29.5638 26.8368 20.5737 26.7755 11.6412C26.7755 10.5463 27.0821 10.2581 28.186 10.3158C30.087 10.3734 32.0494 10.3158 33.9505 10.3158Z" fill="#0054E6"/>
<path d="M0.650649 2.70874C0.650649 0.6341 0.650649 0.6341 2.91967 0.6341C15.7366 0.6341 28.5535 0.6341 41.4317 0.6341C42.2902 0.6341 43.1488 0.6341 43.946 0.461214C43.6394 0.115441 43.2714 0.230699 42.9035 0.230699C29.0441 0.230699 15.1846 0.230699 1.38655 0.230699C0.466674 0.230699 0.221375 0.518843 0.221375 1.32565C0.282699 4.37997 0.221375 7.4343 0.221375 10.5463C0.650649 10.0852 0.589324 9.50894 0.589324 8.93265C0.711973 6.85801 0.650649 4.78337 0.650649 2.70874Z" fill="#0054E6"/>
<path d="M62.5891 0.634374C58.1737 0.634374 53.7583 0.634374 49.3429 0.634374C48.7296 0.634374 48.0551 0.749632 47.5645 0.230972C41.9226 6.57014 36.2194 12.9669 30.5162 19.3061C29.9029 19.9977 29.9642 20.3434 30.5162 20.9773C36.0967 27.086 41.616 33.137 47.1352 39.2457C47.5645 39.7643 48.0551 39.9949 48.7296 39.9372C53.5743 39.8796 58.419 39.9372 63.325 39.9372C63.5703 39.9372 63.9382 40.1101 64.1222 39.7067C63.9382 39.4762 63.7542 39.188 63.5089 38.9575C58.1123 32.9641 52.7158 26.9707 47.3192 20.9773C46.5833 20.1705 46.6446 19.7671 47.3192 19.018C50.5694 15.5602 53.7583 11.9873 56.9472 8.47189C59.4615 5.76334 61.9145 2.99716 64.4288 0.230972C63.8769 0.634374 63.2636 0.634374 62.5891 0.634374Z" fill="#0054E6"/>
<path d="M49.343 0.634374C53.7584 0.634374 58.1738 0.634374 62.5892 0.634374C63.2024 0.634374 63.877 0.634374 64.4289 0.230972C58.787 0.230972 53.2065 0.230972 47.5646 0.230972C48.0552 0.692002 48.7297 0.634374 49.343 0.634374Z" fill="#0054E6"/>
</svg>
